<mxfile host="app.diagrams.net" modified="2023-12-22T06:59:36.474Z" agent="Mozilla/5.0 (Windows NT 10.0; Win64; x64) AppleWebKit/537.36 (KHTML, like Gecko) Chrome/120.0.0.0 Safari/537.36 Edg/120.0.0.0" etag="qSWyzJcX1YKQu2u9UWN0" version="22.1.11" type="github">
  <diagram name="Halaman-1" id="1yd1yZY-Gfleu246yJgg">
    <mxGraphModel dx="1304" dy="752" grid="1" gridSize="10" guides="1" tooltips="1" connect="1" arrows="1" fold="1" page="1" pageScale="1" pageWidth="827" pageHeight="1169" math="0" shadow="0">
      <root>
        <mxCell id="0" />
        <mxCell id="1" parent="0" />
        <mxCell id="rLAzSCplcN9dGjQuWorZ-3" style="edgeStyle=orthogonalEdgeStyle;rounded=0;orthogonalLoop=1;jettySize=auto;html=1;exitX=0.5;exitY=1;exitDx=0;exitDy=0;entryX=0.5;entryY=0;entryDx=0;entryDy=0;" edge="1" parent="1" source="rLAzSCplcN9dGjQuWorZ-1" target="rLAzSCplcN9dGjQuWorZ-2">
          <mxGeometry relative="1" as="geometry" />
        </mxCell>
        <mxCell id="rLAzSCplcN9dGjQuWorZ-1" value="WEB" style="ellipse;whiteSpace=wrap;html=1;aspect=fixed;" vertex="1" parent="1">
          <mxGeometry x="380" y="20" width="80" height="80" as="geometry" />
        </mxCell>
        <mxCell id="rLAzSCplcN9dGjQuWorZ-2" value="Hi, I&#39;m Lexi, your virtual assistant here to help you find the most suitable Lexus car, book a test drive and many more.&lt;br style=&quot;box-sizing: border-box; font-family: Nobel, Arial, sans-serif; opacity: 1; max-width: none; direction: inherit; text-align: left; outline: none; text-size-adjust: none; -webkit-font-smoothing: antialiased; color: rgb(4, 4, 4); line-height: inherit; font-size: 13px; overflow: inherit; z-index: inherit; background-image: inherit; background-position: inherit; background-size: inherit; background-repeat: inherit; background-attachment: inherit; background-origin: inherit; background-clip: inherit; background-color: rgb(242, 242, 242);&quot;&gt;&lt;br style=&quot;box-sizing: border-box; font-family: Nobel, Arial, sans-serif; opacity: 1; max-width: none; direction: inherit; text-align: left; outline: none; text-size-adjust: none; -webkit-font-smoothing: antialiased; color: rgb(4, 4, 4); line-height: inherit; font-size: 13px; overflow: inherit; z-index: inherit; background-image: inherit; background-position: inherit; background-size: inherit; background-repeat: inherit; background-attachment: inherit; background-origin: inherit; background-clip: inherit; background-color: rgb(242, 242, 242);&quot;&gt;&lt;span style=&quot;color: rgb(4, 4, 4); font-family: Nobel, Arial, sans-serif; font-size: 13px; text-align: left; background-color: rgb(242, 242, 242);&quot;&gt;Click below to get started.&lt;/span&gt;" style="rounded=0;whiteSpace=wrap;html=1;" vertex="1" parent="1">
          <mxGeometry x="280" y="130" width="280" height="110" as="geometry" />
        </mxCell>
        <mxCell id="rLAzSCplcN9dGjQuWorZ-4" value="Get Started" style="strokeWidth=1;html=1;shape=mxgraph.flowchart.terminator;whiteSpace=wrap;" vertex="1" parent="1">
          <mxGeometry x="280" y="256" width="80" height="40" as="geometry" />
        </mxCell>
        <mxCell id="rLAzSCplcN9dGjQuWorZ-5" value="Welcome - Language" style="swimlane;childLayout=stackLayout;horizontal=1;startSize=40;horizontalStack=0;rounded=1;fontSize=14;fontStyle=0;strokeWidth=2;resizeParent=0;resizeLast=1;shadow=0;dashed=0;align=center;arcSize=4;whiteSpace=wrap;html=1;" vertex="1" parent="1">
          <mxGeometry x="735" y="420" width="240" height="120" as="geometry" />
        </mxCell>
        <mxCell id="rLAzSCplcN9dGjQuWorZ-6" value="&lt;br&gt;Please choose the language you would like&lt;br&gt;to continue" style="align=left;strokeColor=none;fillColor=none;spacingLeft=4;fontSize=12;verticalAlign=top;resizable=0;rotatable=0;part=1;html=1;" vertex="1" parent="rLAzSCplcN9dGjQuWorZ-5">
          <mxGeometry y="40" width="240" height="80" as="geometry" />
        </mxCell>
        <mxCell id="rLAzSCplcN9dGjQuWorZ-10" value="English" style="strokeWidth=1;html=1;shape=mxgraph.flowchart.terminator;whiteSpace=wrap;" vertex="1" parent="1">
          <mxGeometry x="735" y="560" width="80" height="40" as="geometry" />
        </mxCell>
        <mxCell id="rLAzSCplcN9dGjQuWorZ-11" value="Thai" style="strokeWidth=1;html=1;shape=mxgraph.flowchart.terminator;whiteSpace=wrap;" vertex="1" parent="1">
          <mxGeometry x="895" y="560" width="80" height="40" as="geometry" />
        </mxCell>
        <mxCell id="rLAzSCplcN9dGjQuWorZ-26" style="edgeStyle=orthogonalEdgeStyle;rounded=0;orthogonalLoop=1;jettySize=auto;html=1;" edge="1" parent="1" source="rLAzSCplcN9dGjQuWorZ-12" target="rLAzSCplcN9dGjQuWorZ-15">
          <mxGeometry relative="1" as="geometry" />
        </mxCell>
        <mxCell id="rLAzSCplcN9dGjQuWorZ-12" value="01&lt;br&gt;Welcome" style="ellipse;whiteSpace=wrap;html=1;aspect=fixed;" vertex="1" parent="1">
          <mxGeometry x="380" y="470" width="80" height="80" as="geometry" />
        </mxCell>
        <mxCell id="rLAzSCplcN9dGjQuWorZ-25" style="edgeStyle=orthogonalEdgeStyle;rounded=0;orthogonalLoop=1;jettySize=auto;html=1;entryX=0.5;entryY=0;entryDx=0;entryDy=0;" edge="1" parent="1" source="rLAzSCplcN9dGjQuWorZ-14" target="rLAzSCplcN9dGjQuWorZ-5">
          <mxGeometry relative="1" as="geometry" />
        </mxCell>
        <mxCell id="rLAzSCplcN9dGjQuWorZ-14" value="User Input - pattern match â€¨&#39;Hi*&#39;, &#39;Hello*&#39;, &#39;Holla*&#39;, &#39;Sawasdee*&#39;, &#39;good morning*&#39;, &#39;hey*&#39;, &#39;good afternoon*&#39;, &#39;good evening*&#39;, &#39;&#39;menu&#39;, &#39;main menu&#39;, &#39;get started&#39;, &#39;^back (to |)(main |)menu$&#39;, &#39;start&#39;, &#39;start again&#39;, &#39;home&#39;, &#39;topics&#39;" style="shape=callout;whiteSpace=wrap;html=1;perimeter=calloutPerimeter;position2=0.21;size=20;position=0.28;" vertex="1" parent="1">
          <mxGeometry x="710" y="256" width="290" height="140" as="geometry" />
        </mxCell>
        <mxCell id="rLAzSCplcN9dGjQuWorZ-15" value="Welcome - Menu" style="swimlane;childLayout=stackLayout;horizontal=1;startSize=40;horizontalStack=0;rounded=1;fontSize=14;fontStyle=0;strokeWidth=2;resizeParent=0;resizeLast=1;shadow=0;dashed=0;align=center;arcSize=4;whiteSpace=wrap;html=1;" vertex="1" parent="1">
          <mxGeometry x="300" y="580" width="240" height="170" as="geometry" />
        </mxCell>
        <mxCell id="rLAzSCplcN9dGjQuWorZ-16" value="Hi [insertName]! Nice to meet you.&lt;br&gt;&lt;br&gt;&lt;br&gt;I&#39;m your virtual assistant here to help you&lt;br&gt;find the most suitable Lexus car, book a&lt;br&gt;test drive and many more.&lt;br&gt;&lt;br&gt;How may I assist you?" style="align=left;strokeColor=none;fillColor=none;spacingLeft=4;fontSize=12;verticalAlign=top;resizable=0;rotatable=0;part=1;html=1;" vertex="1" parent="rLAzSCplcN9dGjQuWorZ-15">
          <mxGeometry y="40" width="240" height="130" as="geometry" />
        </mxCell>
        <mxCell id="rLAzSCplcN9dGjQuWorZ-18" value="Welcome - Name" style="swimlane;childLayout=stackLayout;horizontal=1;startSize=40;horizontalStack=0;rounded=1;fontSize=14;fontStyle=0;strokeWidth=2;resizeParent=0;resizeLast=1;shadow=0;dashed=0;align=center;arcSize=4;whiteSpace=wrap;html=1;" vertex="1" parent="1">
          <mxGeometry x="300" y="320" width="240" height="120" as="geometry" />
        </mxCell>
        <mxCell id="rLAzSCplcN9dGjQuWorZ-19" value="&lt;br&gt;May I know your name?" style="align=left;strokeColor=none;fillColor=none;spacingLeft=4;fontSize=12;verticalAlign=top;resizable=0;rotatable=0;part=1;html=1;" vertex="1" parent="rLAzSCplcN9dGjQuWorZ-18">
          <mxGeometry y="40" width="240" height="80" as="geometry" />
        </mxCell>
        <mxCell id="rLAzSCplcN9dGjQuWorZ-20" style="edgeStyle=orthogonalEdgeStyle;rounded=0;orthogonalLoop=1;jettySize=auto;html=1;entryX=0.5;entryY=1;entryDx=0;entryDy=0;entryPerimeter=0;" edge="1" parent="1" source="rLAzSCplcN9dGjQuWorZ-18" target="rLAzSCplcN9dGjQuWorZ-10">
          <mxGeometry relative="1" as="geometry" />
        </mxCell>
        <mxCell id="rLAzSCplcN9dGjQuWorZ-22" style="edgeStyle=orthogonalEdgeStyle;rounded=0;orthogonalLoop=1;jettySize=auto;html=1;entryX=0.5;entryY=0;entryDx=0;entryDy=0;" edge="1" parent="1" source="rLAzSCplcN9dGjQuWorZ-19" target="rLAzSCplcN9dGjQuWorZ-12">
          <mxGeometry relative="1" as="geometry" />
        </mxCell>
        <mxCell id="rLAzSCplcN9dGjQuWorZ-24" style="edgeStyle=orthogonalEdgeStyle;rounded=0;orthogonalLoop=1;jettySize=auto;html=1;entryX=0;entryY=0;entryDx=0;entryDy=60;entryPerimeter=0;" edge="1" parent="1" source="rLAzSCplcN9dGjQuWorZ-4" target="rLAzSCplcN9dGjQuWorZ-14">
          <mxGeometry relative="1" as="geometry">
            <Array as="points">
              <mxPoint x="620" y="276" />
              <mxPoint x="620" y="316" />
            </Array>
          </mxGeometry>
        </mxCell>
      </root>
    </mxGraphModel>
  </diagram>
</mxfile>
